<svg width="22" height="14" viewBox="0 0 22 14" fill="none" xmlns="http://www.w3.org/2000/svg">
<path fill-rule="evenodd" clip-rule="evenodd" d="M1.97524 7.17595C1.97509 7.17603 1.976 7.17309 1.97844 7.16691C1.97662 7.17279 1.9754 7.17588 1.97524 7.17595ZM2.06702 7C2.16574 6.83663 2.32596 6.61277 2.55169 6.34392C3.00971 5.79842 3.68927 5.12495 4.53887 4.47102C6.25268 3.15193 8.54161 2 11 2C13.4584 2 15.7473 3.15193 17.4611 4.47102C18.3107 5.12495 18.9903 5.79842 19.4483 6.34392C19.674 6.61276 19.8343 6.83663 19.933 7C19.8343 7.16336 19.674 7.38724 19.4483 7.65608C18.9903 8.20158 18.3107 8.87505 17.4611 9.52898C15.7473 10.8481 13.4584 12 11 12C8.54161 12 6.25268 10.8481 4.53887 9.52898C3.68927 8.87505 3.00971 8.20158 2.55169 7.65608C2.32596 7.38723 2.16574 7.16336 2.06702 7ZM20.0248 7.17595C20.0246 7.17587 20.0234 7.17278 20.0216 7.1669C20.024 7.1731 20.0249 7.17604 20.0248 7.17595ZM20.0216 6.83309C20.0234 6.82724 20.0246 6.82415 20.0248 6.82405C20.0249 6.82394 20.024 6.82688 20.0216 6.83309ZM1.97844 6.83309C1.976 6.82691 1.97509 6.82397 1.97524 6.82404C1.9754 6.82412 1.97662 6.82721 1.97844 6.83309ZM3.31899 2.88612C5.22447 1.4195 7.93554 0 11 0C14.0645 0 16.7755 1.4195 18.681 2.88612C19.6411 3.62505 20.426 4.39801 20.98 5.05787C21.2559 5.38645 21.4868 5.70152 21.655 5.98269C21.7388 6.12272 21.8164 6.26997 21.8759 6.41772C21.9284 6.54789 22 6.75785 22 7C22 7.24215 21.9284 7.45211 21.8759 7.58228C21.8164 7.73003 21.7388 7.87728 21.655 8.01731C21.4868 8.29848 21.2559 8.61355 20.98 8.94213C20.426 9.60199 19.6411 10.3749 18.681 11.1139C16.7755 12.5805 14.0645 14 11 14C7.93554 14 5.22447 12.5805 3.31899 11.1139C2.35895 10.3749 1.57404 9.60199 1.02001 8.94213C0.744117 8.61355 0.513235 8.29848 0.345018 8.01731C0.261243 7.87728 0.183573 7.73003 0.124058 7.58228C0.0716193 7.45211 0 7.24215 0 7C0 6.75785 0.0716193 6.54789 0.124058 6.41772C0.183573 6.26997 0.261243 6.12272 0.345018 5.98269C0.513235 5.70152 0.744117 5.38645 1.02001 5.05787C1.57404 4.39801 2.35895 3.62505 3.31899 2.88612Z" fill="#878787"/>
</svg>
